HIERARCHY
ROOT Hips
{
	OFFSET	0.00	0.00	0.00
	CHANNELS 6 Xposition Yposition Zposition Zrotation Xrotation Yrotation
	JOINT LeftHip
	{
		OFFSET	 3.430000	 0.000000	 0.000000
		CHANNELS 3 Zrotation Xrotation Yrotation
		JOINT LeftKnee
		{
			OFFSET	 0.000000	-18.469999	 0.000000
			CHANNELS 3 Zrotation Xrotation Yrotation
			JOINT LeftAnkle
			{
				OFFSET	 0.000000	-17.950001	 0.000000
				CHANNELS 3 Zrotation Xrotation Yrotation
				End Site 
				{
					OFFSET	 0.000000	-3.119996	 0.000000
				}
			}
		}
	}
	JOINT RightHip
	{
		OFFSET	-3.430000	 0.000000	 0.000000
		CHANNELS 3 Zrotation Xrotation Yrotation
		JOINT RightKnee
		{
			OFFSET	 0.000000	-18.809999	 0.000000
			CHANNELS 3 Zrotation Xrotation Yrotation
			JOINT RightAnkle
			{
				OFFSET	 0.000000	-17.570000	 0.000000
				CHANNELS 3 Zrotation Xrotation Yrotation
				End Site 
				{
					OFFSET	 0.000000	-3.250000	 0.000000
				}
			}
		}
	}
	JOINT Chest
	{
		OFFSET	 0.000000	 4.570000	 0.000000
		CHANNELS 3 Zrotation Xrotation Yrotation
		JOINT LeftCollar
		{
			OFFSET	 1.060000	 15.330000	 1.760000
			CHANNELS 3 Zrotation Xrotation Yrotation
			JOINT LeftShoulder
			{
				OFFSET	 5.810000	 0.000000	 0.000000
				CHANNELS 3 Zrotation Xrotation Yrotation
				JOINT LeftElbow
				{
					OFFSET	 0.000000	-12.080000	 0.000000
					CHANNELS 3 Zrotation Xrotation Yrotation
					JOINT LeftWrist
					{
						OFFSET	 0.000000	-9.820000	 0.000000
						CHANNELS 3 Zrotation Xrotation Yrotation
						End Site 
						{
							OFFSET	 0.000000	-7.369996	 0.000000
						}
					}
				}
			}
		}
		JOINT RightCollar
		{
			OFFSET	-1.060000	 15.330000	 1.760000
			CHANNELS 3 Zrotation Xrotation Yrotation
			JOINT RightShoulder
			{
				OFFSET	-6.060000	 0.000000	 0.000000
				CHANNELS 3 Zrotation Xrotation Yrotation
				JOINT RightElbow
				{
					OFFSET	 0.000000	-11.900000	 0.000000
					CHANNELS 3 Zrotation Xrotation Yrotation
					JOINT RightWrist
					{
						OFFSET	 0.000000	-9.520000	 0.000000
						CHANNELS 3 Zrotation Xrotation Yrotation
						End Site 
						{
							OFFSET	 0.000000	-7.140012	 0.000000
						}
					}
				}
			}
		}
		JOINT Neck
		{
			OFFSET	 0.000000	 17.620001	 0.000000
			CHANNELS 3 Zrotation Xrotation Yrotation
			JOINT Head
			{
				OFFSET	 0.000000	 5.190000	 0.000000
				CHANNELS 3 Zrotation Xrotation Yrotation
				End Site 
				{
					OFFSET	 0.000000	 4.140008	 0.000000
				}
			}
		}
	}
}

MOTION
Frames: 14
Frame Time: 0.033333
-47.3831 1.6298 -45.0943 -12.4499 3.6898 84.634 12.9503 -51.3798 7.96774 -0.576971 37.5468 0.189316 -14.4756 6.24942 -11.0401 -26.489 -3.91147 -49.3617 3.87604 37.7644 4.91096 12.2411 -29.5631 -0.536669 4.73796 30.2167 0.968271 0 0 0 3.25691 -32.3697 5.60752 -78.4937 -38.9101 -55.3715 52.0011 -22.0494 -14.1453 0 0 0 -25.0032 -26.8658 -13.4894 63.3079 -63.6427 51.9921 -33.3031 -29.1566 22.8686 0 0 0 -3.24802 -38.8554 13.1293 
-47.8627 1.5595 -45.0265 -13.2633 4.0721 82.2898 15.3821 -51.6443 10.3799 -0.373157 37.8405 0.276553 -15.2862 6.38066 -9.72492 -26.6973 -5.82854 -49.2601 3.39972 38.1312 6.07479 11.4306 -29.4358 0.520723 6.38057 30.9756 -2.15552 0 0 0 3.93347 -30.8472 0.876149 -83.7953 -39.7286 -59.322 55.1693 -27.0169 -11.8445 0 0 0 -27.2743 -22.0153 -14.6306 73.7489 -65.6917 61.8157 -37.8403 -34.1626 21.1439 0 0 0 -1.93266 -38.7298 17.4554 
-48.272 1.5821 -45.0014 -14.109 4.79636 79.0546 18.3497 -51.2194 13.575 -0.101317 37.8392 0.491179 -16.2925 6.39114 -8.36576 -27.0943 -7.99556 -48.9027 2.96475 38.2392 7.13219 10.5655 -28.0294 2.38883 7.65595 30.6631 -5.00177 0 0 0 4.99094 -30.6748 -3.99363 -88.8208 -41.0674 -63.5823 57.0882 -30.8668 -9.73326 0 0 0 -29.1468 -18.7686 -15.5972 84.7973 -66.8741 72.5242 -41.9452 -38.901 19.2017 0 0 0 -1.24285 -37.0086 21.0127 
-48.5332 1.6675 -44.9938 -14.3954 5.68319 74.9051 21.6053 -50.253 17.277 0.181452 37.5669 0.769461 -17.4212 6.46012 -6.99876 -27.4606 -10.3436 -48.1543 2.62092 38.123 8.13798 9.57037 -26.3265 4.29643 8.3299 29.6799 -7.12868 0 0 0 5.26445 -31.7755 -8.21082 -92.6491 -42.4248 -66.9075 57.7845 -34.5956 -8.78482 0 0 0 -30.3294 -16.8574 -15.8645 94.1614 -67.5718 81.4734 -46.3932 -43.3486 17.6245 0 0 0 -1.08257 -34.72 23.4163 
-48.719 1.783 -45.0064 -13.8818 6.46719 70.2802 24.4153 -48.5093 20.3775 0.528671 36.9041 0.952567 -18.9383 6.51552 -6.15752 -27.6907 -12.6218 -47.1979 2.16505 37.8197 8.90074 8.7351 -24.3479 6.45856 8.88487 28.4863 -9.01457 0 0 0 4.9668 -33.6519 -10.8217 -95.5884 -43.4382 -69.626 57.4073 -37.9098 -8.59294 0 0 0 -30.7138 -16.0672 -15.1333 101.64 -67.863 88.638 -51.4271 -47.466 16.1233 0 0 0 -1.26696 -32.3402 24.9349 
-48.6864 1.9939 -45.1094 -13.0033 7.15931 65.1626 26.6886 -46.2933 22.7511 0.673152 35.9853 0.979294 -20.3736 6.18186 -5.40009 -27.7044 -14.7563 -45.283 2.34947 37.1603 8.67155 8.08869 -22.1877 8.87749 9.21259 27.4082 -10.5108 0 0 0 5.20423 -35.7761 -10.9921 -97.4589 -44.0055 -71.1426 55.9555 -40.9978 -8.68644 0 0 0 -30.2627 -16.6621 -13.479 106.903 -68.3889 93.7316 -55.6525 -50.6761 14.8701 0 0 0 -1.61015 -30.3586 25.664 
-48.6437 2.0492 -45.137 -11.651 7.46956 60.3536 28.0437 -43.7294 24.1452 0.660677 35.224 1.17214 -21.6891 5.62693 -4.96609 -27.454 -16.1746 -43.1048 2.60624 36.1393 8.29967 7.51461 -19.9202 11.2934 9.70068 26.4269 -11.941 0 0 0 5.95229 -37.5031 -9.87999 -98.7561 -44.4621 -72.241 54.7152 -42.5626 -8.72023 0 0 0 -29.6517 -17.5535 -11.7341 111.443 -68.7365 98.043 -58.5012 -52.8548 14.1902 0 0 0 -2.25116 -28.7107 25.1997 
-48.4629 2.2551 -45.2148 -10.5024 7.80551 55.6468 28.9602 -40.9422 25.6018 0.595396 34.5918 1.49504 -22.7254 4.8086 -5.10983 -27.1315 -17.4346 -40.7017 2.4644 35.2156 8.40383 7.23692 -18.044 13.2998 10.0624 25.2291 -13.0134 0 0 0 7.33382 -37.9527 -7.39328 -99.67 -44.4716 -73.0257 53.297 -42.9031 -8.74748 0 0 0 -29.1119 -18.6231 -9.92471 114.791 -68.9411 101.156 -60.3594 -54.1957 13.8882 0 0 0 -3.10556 -27.0151 24.0001 
-48.2294 2.353 -45.2726 -9.5008 7.97151 51.6442 29.2028 -38.1272 26.8997 0.662398 34.0933 1.58195 -23.298 3.88888 -6.05108 -26.6861 -18.3074 -37.9256 2.57254 34.3035 8.22995 6.80112 -16.2756 14.6471 10.1852 24.0503 -13.7442 0 0 0 8.96388 -37.3762 -4.68074 -100.085 -44.1284 -72.9794 52.0618 -40.8782 -8.97051 0 0 0 -28.4747 -19.6774 -8.32053 116.762 -68.8647 102.804 -60.5419 -54.7933 14.8606 0 0 0 -3.87105 -25.2877 22.0444 
-47.9707 2.4937 -45.3052 -8.65563 8.09052 48.2204 29.0094 -35.5842 27.8761 0.762369 33.769 1.44179 -23.6749 2.78083 -7.11943 -26.2768 -18.8599 -35.3043 2.74026 33.5497 8.06607 6.90973 -15.7242 15.4447 10.2695 23.0195 -14.1373 0 0 0 10.2691 -36.1369 -2.15493 -100.074 -43.595 -72.5772 50.7245 -37.0339 -8.63057 0 0 0 -27.9887 -20.5433 -6.72719 118.292 -68.7523 104.045 -60.459 -55.2175 16.6657 0 0 0 -4.55137 -23.8284 19.804 
-47.7071 2.5288 -45.4132 -7.71507 7.97389 44.7261 28.4952 -32.9198 28.0067 0.837155 33.5789 1.23394 -24.1633 1.2113 -7.58941 -25.9642 -19.1644 -32.8904 2.97177 33.1081 7.74103 7.05003 -15.2556 16.7637 10.2487 22.1249 -14.0837 0 0 0 11.4239 -33.7804 -0.216441 -100.326 -43.1934 -72.6781 49.3024 -32.4876 -8.02437 0 0 0 -27.4483 -21.0399 -5.15352 118.666 -68.5218 104.253 -60.1943 -55.3619 18.7064 0 0 0 -5.17933 -22.306 17.5479 
-47.3505 2.5414 -45.5413 -6.8788 7.72771 41.3781 28.037 -30.5807 28.0042 0.752436 33.6105 1.23331 -24.2083 -0.622832 -7.28483 -25.6244 -19.4156 -30.9002 3.28109 33.3024 7.35706 7.01358 -15.2958 18.3502 10.1183 21.3505 -13.7361 0 0 0 12.3479 -31.3162 1.28879 -100.382 -43.0321 -72.5837 48.1995 -28.2798 -7.51061 0 0 0 -26.9799 -21.2409 -3.60875 118.816 -68.2277 104.253 -60.3789 -55.6113 20.3102 0 0 0 -5.69985 -20.9608 15.5019 
-47.0818 2.5288 -45.6116 -6.17399 7.47308 38.662 27.5726 -28.5243 28.2628 0.728351 33.743 1.25133 -24.1191 -2.22249 -6.83827 -25.4121 -19.5805 -29.4937 3.48064 33.6756 7.18916 6.95694 -15.454 19.7716 10.0911 20.696 -13.4909 0 0 0 12.9219 -28.9195 2.36975 -100.329 -42.756 -72.6999 47.4503 -24.0562 -6.99707 0 0 0 -26.6809 -21.165 -2.09122 118.828 -67.7257 104.208 -61.0114 -55.7998 21.6378 0 0 0 -6.08646 -19.9535 13.7857 
-46.8282 2.4685 -45.6995 -5.54323 7.12997 36.2756 27.2518 -26.6092 28.8527 0.840425 33.7955 0.950041 -23.7717 -3.64557 -6.36253 -25.2041 -19.8261 -28.1661 3.76221 34.4515 6.86383 6.85477 -15.826 21.0121 9.98436 20.1639 -12.9791 0 0 0 13.4577 -27.1089 2.6455 -99.9653 -42.6737 -72.489 46.7691 -20.1423 -6.65489 0 0 0 -26.3869 -20.8039 -0.425973 118.788 -67.4359 104.195 -62.5545 -56.3283 22.3631 0 0 0 -6.40834 -19.0664 12.445 
